<svg width="582" height="491" viewBox="0 0 582 491" fill="none" xmlns="http://www.w3.org/2000/svg">
<g opacity="0.316491">
<path d="M135.767 42.1806C144.949 16.8614 169 0 195.933 0H518C553.346 0 582 28.6538 582 64V427C582 462.346 553.346 491 518 491H64.2886C19.8984 491 -11.011 446.911 4.12292 405.181L135.767 42.1806Z" fill="#7963F0"/>
<path d="M135.767 42.1806C144.949 16.8614 169 0 195.933 0H518C553.346 0 582 28.6538 582 64V427C582 462.346 553.346 491 518 491H64.2886C19.8984 491 -11.011 446.911 4.12292 405.181L135.767 42.1806Z" fill="white" fill-opacity="0.85"/>
</g>
</svg>
